PathFileType	4	(X/Y/Z)	s03c0303.trc
DataRate	CameraRate	NumFrames	NumMarkers	Units	OrigDataRate	OrigDataStartFrame	OrigNumFrames
200	200	4	50	mm	200	0	2000
Frame#	Time	racr			lacr			c7			jug			rlel			rdr			llel			ldr			s2			lic			ric			lasi			rasi			rpsi			lpsi			rgt			lgt			rth1			rth2			rth3			rth4			rlfc			rmfc			rsh1			rsh2			rsh3			rsh4			rlmal			rcal			rtoe			rmt5			rmt1			lth1			lth2			lth4			lth3			llfc			lmfc			lsh1			lsh2			lsh3			lsh4			llmal			lcal			ltoe			lmt1			lmt5			SBIKE			LBIKE			RBIKE			
		X1	Y1	Z1	X2	Y2	Z2	X3	Y3	Z3	X4	Y4	Z4	X5	Y5	Z5	X6	Y6	Z6	X7	Y7	Z7	X8	Y8	Z8	X9	Y9	Z9	X10	Y10	Z10	X11	Y11	Z11	X12	Y12	Z12	X13	Y13	Z13	X14	Y14	Z14	X15	Y15	Z15	X16	Y16	Z16	X17	Y17	Z17	X18	Y18	Z18	X19	Y19	Z19	X20	Y20	Z20	X21	Y21	Z21	X22	Y22	Z22	X23	Y23	Z23	X24	Y24	Z24	X25	Y25	Z25	X26	Y26	Z26	X27	Y27	Z27	X28	Y28	Z28	X29	Y29	Z29	X30	Y30	Z30	X31	Y31	Z31	X32	Y32	Z32	X33	Y33	Z33	X34	Y34	Z34	X35	Y35	Z35	X36	Y36	Z36	X37	Y37	Z37	X38	Y38	Z38	X39	Y39	Z39	X40	Y40	Z40	X41	Y41	Z41	X42	Y42	Z42	X43	Y43	Z43	X44	Y44	Z44	X45	Y45	Z45	X46	Y46	Z46	X47	Y47	Z47	X48	Y48	Z48	X49	Y49	Z49	X50	Y50	Z50	
0	0.0000	493.016439	1415.394559	-95.237158	484.116958	1424.772026	-407.834162	414.241866	1489.839714	-249.394798	449.765935	1320.653599	-246.834752	540.095528	1147.342847	-13.155377	751.495928	947.642995	-49.181136	552.776564	1160.728210	-470.271890	751.189880	931.640894	-434.324170	-106.517626	1206.953586	-247.501011	78.108025	1204.840252	-426.501357	70.057744	1224.317037	-60.100718	91.110550	1129.245317	-395.857374	0.000000	0.000000	-0.000000	-74.025452	1255.416790	-203.421480	-67.241942	1250.873496	-286.307127	1.434839	1148.672384	-41.043136	4.629227	1100.740721	-446.207211	125.599972	1058.445293	-22.743063	214.537145	1056.463170	-20.353810	289.560618	1013.368069	-22.439365	225.551438	1089.235508	-33.644046	408.195923	947.811498	-42.475221	416.802987	936.209486	-169.572846	353.069415	790.974137	-27.252126	343.645101	703.949794	-44.192626	288.860180	633.990150	-50.444412	369.624755	695.701117	-70.563849	233.453371	514.373174	-75.273530	168.442650	464.346706	-117.390225	477.139881	474.803741	-121.049276	360.257860	451.244121	-49.613254	383.320480	469.625878	-164.262593	73.077974	958.719376	-472.283730	135.651634	898.568803	-480.731023	166.864684	918.429130	-479.715497	162.468519	814.164680	-474.329973	244.981666	710.471899	-465.894556	257.905094	701.533284	-340.181031	147.055923	566.915219	-475.679192	126.934368	487.418299	-451.963360	64.336801	422.426411	-437.698273	155.294570	476.049668	-426.978924	-4.084109	316.208372	-406.556250	-76.684042	282.661582	-355.672936	226.634648	222.925686	-360.581588	133.674734	233.621092	-314.792661	103.398828	219.573466	-430.527468	-221.611578	942.755991	-236.972250	-14.489984	79.786870	-436.768668	-14.591795	80.440586	-36.876501	
1	0.0050	493.050953	1415.361919	-95.258970	484.123794	1424.752112	-407.867656	414.224512	1489.840302	-249.366302	449.748004	1320.661909	-246.802248	540.083501	1147.343424	-13.175284	751.480061	947.641105	-49.180878	552.779971	1160.739678	-470.272673	751.436778	931.775623	-434.211277	-106.517390	1206.940144	-247.487053	78.065881	1204.806900	-426.520592	70.054044	1224.273373	-60.111717	91.110906	1129.234478	-395.822896	0.000000	0.000000	-0.000000	-74.028429	1255.422060	-203.434462	-67.229852	1250.867578	-286.330312	1.451944	1148.659185	-41.060775	4.605150	1100.745225	-446.224455	125.605235	1058.438044	-22.749050	214.542348	1056.432142	-20.372345	289.569617	1013.346521	-22.463200	225.568425	1089.226774	-33.652724	408.213800	947.771626	-42.477402	416.791714	936.183786	-169.581277	353.076072	790.961641	-27.265676	343.664785	703.930828	-44.198494	288.854344	633.989994	-50.448758	369.634169	695.698607	-70.564902	233.428256	514.382505	-75.290147	168.432762	464.341167	-117.396095	477.131884	474.826873	-121.021794	360.253315	451.235913	-49.620979	383.330455	469.629918	-164.272835	73.073286	958.718816	-472.300745	135.654664	898.575045	-480.768081	166.873786	918.436524	-479.729949	162.477663	814.187842	-474.357612	244.985345	710.476841	-465.926180	257.953699	701.543850	-340.203748	147.056351	566.940598	-475.719899	126.950886	487.418245	-452.009398	64.366658	422.440712	-437.699791	155.315514	476.060808	-426.994351	-4.073068	316.218812	-406.555799	-76.669202	282.686481	-355.685049	226.619463	222.940981	-360.588706	133.700365	233.617383	-314.775234	103.411392	219.586029	-430.526783	-221.609050	942.771214	-237.000396	-14.495282	79.816847	-436.765554	-14.575380	80.436388	-36.886607	
2	0.0100	493.028400	1415.380991	-95.270857	484.132200	1424.747190	-407.872692	414.221861	1489.834612	-249.375877	449.730902	1320.665305	-246.820720	540.079506	1147.337581	-13.188838	751.480058	947.641164	-49.181109	552.780855	1160.740089	-470.282640	751.423290	931.773397	-434.207175	-106.517390	1206.940144	-247.487053	78.050398	1204.824287	-426.545058	70.050879	1224.278095	-60.116642	91.102969	1129.240960	-395.836895	0.000000	0.000000	-0.000000	-74.036781	1255.426853	-203.430357	-67.235815	1250.866741	-286.312510	1.444209	1148.652303	-41.051041	4.602723	1100.750189	-446.229676	125.608943	1058.425680	-22.769193	214.549989	1056.423465	-20.373575	289.563086	1013.335931	-22.474929	225.573717	1089.210690	-33.664645	408.203029	947.761984	-42.477181	416.792760	936.162412	-169.606247	353.065849	790.955981	-27.271446	343.631543	703.924751	-44.218593	288.846739	633.972597	-50.456887	369.615270	695.685084	-70.569201	233.416862	514.362108	-75.291644	168.428321	464.322981	-117.372246	477.115339	474.829801	-121.022004	360.259403	451.235615	-49.619991	383.307206	469.626017	-164.260481	73.057533	958.721369	-472.309953	135.653653	898.570648	-480.776180	166.864983	918.443077	-479.750650	162.486478	814.192263	-474.361964	244.995857	710.503205	-465.934423	257.977061	701.542192	-340.220609	147.066950	566.954173	-475.732286	126.962273	487.433107	-452.013291	64.377189	422.457542	-437.701855	155.310955	476.073481	-427.005123	-4.064143	316.230754	-406.562470	-76.658904	282.697549	-355.690239	226.646739	222.922150	-360.569385	133.685914	233.623676	-314.790076	103.423396	219.572199	-430.527532	-221.606992	942.773113	-236.999527	-14.486915	79.835315	-436.761035	-14.579190	80.446304	-36.889712	
3	0.0150	493.042277	1415.373114	-95.263502	484.505930	1424.214617	-405.958164	414.206771	1489.852654	-249.394677	449.733173	1320.653944	-246.821781	539.973016	1147.224754	-13.083522	751.480591	947.637158	-49.178204	552.777167	1160.721858	-470.288118	751.186889	931.614040	-434.316071	-106.528368	1206.941393	-247.483520	77.375819	1205.245313	-427.484750	70.060288	1224.274163	-60.119965	91.001101	1128.124639	-395.224150	0.000000	0.000000	-0.000000	-74.028894	1255.426379	-203.428521	-66.782317	1250.749050	-285.765870	1.459385	1148.650125	-41.064287	4.446512	1100.641682	-446.463057	125.526671	1058.423266	-22.781346	214.563709	1056.416737	-20.375460	289.686176	1013.279472	-22.349827	224.766488	1089.599379	-34.399055	408.218767	947.757491	-42.497559	417.621020	935.132556	-167.397760	353.049674	790.922172	-27.239504	343.646121	703.919970	-44.221199	288.846032	633.952454	-50.457058	371.171683	696.742558	-70.195871	233.147517	514.449850	-75.138328	168.434696	464.305463	-117.384195	477.098107	474.781554	-120.916061	359.966342	451.329794	-49.482681	383.294909	469.622783	-164.264203	73.034373	958.686372	-472.383492	135.661303	898.583513	-480.777925	167.398970	917.594811	-478.230331	162.969326	813.596127	-473.242140	245.681049	709.559310	-464.138125	257.987714	701.560488	-340.214750	147.715068	566.048976	-474.163107	127.313523	486.313581	-449.954938	64.389349	422.457358	-437.701950	155.759311	475.433781	-425.781416	-4.605955	317.319950	-407.820956	-76.650755	282.711583	-355.686842	226.588798	222.940253	-360.580322	133.685015	233.621626	-314.779059	104.055219	218.035249	-428.391237	-221.684677	942.780793	-237.486666	-14.477239	79.812462	-436.775138	-14.599794	80.446207	-36.900240	
